# xmcd
# 
# Track frame offsets:
#     150
#     35325
#     79050
#     116625
#     160950
#     175950
#     221850
#     263175
# 
# Disc length: 4022
# 
# Revision: 1
# Processed by: cddbd v1.5.2PL0 Copyright (c) Steve Scherf et al.
# Submitted via: fre:ac v1.0.17
# 
DISCID=6d0fb408
DTITLE=Tükrös zenekar - A mi mezőségünk
DYEAR=2008
DGENRE=Ethnic
TTITLE0=Magyarpalatkai menyasszonykísérö, csárdás és sűrű csárdás
TTITLE1=Magyarszováti négyes, lassú, szásztánc és összerázás
TTITLE2=Szék 2006. Kisutcai Sipos Márton nótája
TTITLE3=Magyarpalatkai katonakísérő, de-a Lungu, româneste-n botă és Batută
TTITLE4=Visai katonakísérő
TTITLE5=Bonchidai sűrű csárdás, lassú és bărbunc
TTITLE6=Nagysajói magyar lakodalmi kísérő, menyasszonytánc, de-a Lungu és învârtita
TTITLE7=Kakukktojás: kolozsi legényes, csárdás és sebes
EXTD=
EXTT0=
EXTT1=
EXTT2=
EXTT3=
EXTT4=
EXTT5=
EXTT6=
EXTT7=
PLAYORDER=
